<mxfile host="Electron" modified="2023-06-07T21:27:53.684Z" agent="Mozilla/5.0 (Windows NT 10.0; Win64; x64) AppleWebKit/537.36 (KHTML, like Gecko) draw.io/21.2.8 Chrome/112.0.5615.165 Electron/24.2.0 Safari/537.36" etag="tEX0isfEo4nkTnmfIq_Q" version="21.2.8" type="device">
  <diagram name="Page-1" id="hI-W0pmGsUhf168CUdrA">
    <mxGraphModel dx="788" dy="460" grid="1" gridSize="10" guides="1" tooltips="1" connect="1" arrows="1" fold="1" page="1" pageScale="1" pageWidth="1654" pageHeight="1169" math="0" shadow="0">
      <root>
        <mxCell id="0" />
        <mxCell id="1" parent="0" />
        <mxCell id="XVunq-hZrcPURqs-6oLk-12" style="edgeStyle=orthogonalEdgeStyle;rounded=0;orthogonalLoop=1;jettySize=auto;html=1;exitX=0.5;exitY=1;exitDx=0;exitDy=0;exitPerimeter=0;entryX=0.5;entryY=0;entryDx=0;entryDy=0;strokeWidth=2;endArrow=none;endFill=0;fontFamily=Times New Roman;" parent="1" source="XVunq-hZrcPURqs-6oLk-1" target="XVunq-hZrcPURqs-6oLk-3" edge="1">
          <mxGeometry relative="1" as="geometry" />
        </mxCell>
        <mxCell id="XVunq-hZrcPURqs-6oLk-1" value="Начало" style="strokeWidth=2;html=1;shape=mxgraph.flowchart.terminator;whiteSpace=wrap;fontFamily=Times New Roman;" parent="1" vertex="1">
          <mxGeometry x="40" y="40" width="118.11" height="39.37" as="geometry" />
        </mxCell>
        <mxCell id="XVunq-hZrcPURqs-6oLk-13" style="edgeStyle=orthogonalEdgeStyle;rounded=0;orthogonalLoop=1;jettySize=auto;html=1;exitX=0.5;exitY=1;exitDx=0;exitDy=0;entryX=0.5;entryY=0;entryDx=0;entryDy=0;entryPerimeter=0;strokeWidth=2;endArrow=none;endFill=0;fontFamily=Times New Roman;" parent="1" source="XVunq-hZrcPURqs-6oLk-3" target="XVunq-hZrcPURqs-6oLk-4" edge="1">
          <mxGeometry relative="1" as="geometry" />
        </mxCell>
        <mxCell id="XVunq-hZrcPURqs-6oLk-3" value="Блокируем кнопку оформления заказа" style="rounded=0;whiteSpace=wrap;html=1;absoluteArcSize=1;arcSize=14;strokeWidth=2;fontFamily=Times New Roman;" parent="1" vertex="1">
          <mxGeometry x="40" y="100" width="118.11" height="78.74" as="geometry" />
        </mxCell>
        <mxCell id="XVunq-hZrcPURqs-6oLk-14" style="edgeStyle=orthogonalEdgeStyle;rounded=0;orthogonalLoop=1;jettySize=auto;html=1;exitX=0.5;exitY=1;exitDx=0;exitDy=0;exitPerimeter=0;entryX=0.5;entryY=0;entryDx=0;entryDy=0;strokeWidth=2;endArrow=none;endFill=0;fontFamily=Times New Roman;" parent="1" source="XVunq-hZrcPURqs-6oLk-4" target="XVunq-hZrcPURqs-6oLk-29" edge="1">
          <mxGeometry relative="1" as="geometry">
            <mxPoint x="89.05500000000006" y="877.74" as="targetPoint" />
          </mxGeometry>
        </mxCell>
        <mxCell id="XVunq-hZrcPURqs-6oLk-15" style="edgeStyle=orthogonalEdgeStyle;rounded=0;orthogonalLoop=1;jettySize=auto;html=1;exitX=1;exitY=0.5;exitDx=0;exitDy=0;exitPerimeter=0;entryX=0.5;entryY=0;entryDx=0;entryDy=0;strokeWidth=2;endArrow=none;endFill=0;fontFamily=Times New Roman;" parent="1" target="XVunq-hZrcPURqs-6oLk-6" edge="1">
          <mxGeometry relative="1" as="geometry">
            <mxPoint x="119.9999999999999" y="239.3699999999999" as="sourcePoint" />
          </mxGeometry>
        </mxCell>
        <mxCell id="XVunq-hZrcPURqs-6oLk-4" value="Корзина пуста?" style="strokeWidth=2;html=1;shape=mxgraph.flowchart.decision;whiteSpace=wrap;fontFamily=Times New Roman;" parent="1" vertex="1">
          <mxGeometry x="40" y="200" width="118.11" height="78.74" as="geometry" />
        </mxCell>
        <mxCell id="XVunq-hZrcPURqs-6oLk-16" style="edgeStyle=orthogonalEdgeStyle;rounded=0;orthogonalLoop=1;jettySize=auto;html=1;exitX=0.5;exitY=1;exitDx=0;exitDy=0;entryX=0.5;entryY=0;entryDx=0;entryDy=0;strokeWidth=2;endArrow=none;endFill=0;fontFamily=Times New Roman;" parent="1" source="XVunq-hZrcPURqs-6oLk-6" target="XVunq-hZrcPURqs-6oLk-7" edge="1">
          <mxGeometry relative="1" as="geometry" />
        </mxCell>
        <mxCell id="XVunq-hZrcPURqs-6oLk-6" value="Оформление&lt;br&gt;заявки" style="rounded=0;whiteSpace=wrap;html=1;absoluteArcSize=1;arcSize=14;strokeWidth=2;fontFamily=Times New Roman;" parent="1" vertex="1">
          <mxGeometry x="161.89" y="281.26" width="118.11" height="78.74" as="geometry" />
        </mxCell>
        <mxCell id="XVunq-hZrcPURqs-6oLk-17" style="edgeStyle=orthogonalEdgeStyle;rounded=0;orthogonalLoop=1;jettySize=auto;html=1;exitX=0.5;exitY=1;exitDx=0;exitDy=0;entryX=0.5;entryY=0;entryDx=0;entryDy=0;entryPerimeter=0;strokeWidth=2;endArrow=none;endFill=0;fontFamily=Times New Roman;" parent="1" source="XVunq-hZrcPURqs-6oLk-7" target="XVunq-hZrcPURqs-6oLk-8" edge="1">
          <mxGeometry relative="1" as="geometry" />
        </mxCell>
        <mxCell id="XVunq-hZrcPURqs-6oLk-7" value="Отображение сообщения о получении счёт-фактуры" style="rounded=0;whiteSpace=wrap;html=1;absoluteArcSize=1;arcSize=14;strokeWidth=2;fontFamily=Times New Roman;" parent="1" vertex="1">
          <mxGeometry x="161.89" y="381.26" width="118.11" height="78.74" as="geometry" />
        </mxCell>
        <mxCell id="XVunq-hZrcPURqs-6oLk-20" style="edgeStyle=orthogonalEdgeStyle;rounded=0;orthogonalLoop=1;jettySize=auto;html=1;exitX=0.5;exitY=1;exitDx=0;exitDy=0;exitPerimeter=0;entryX=0;entryY=0.5;entryDx=0;entryDy=0;strokeWidth=2;endArrow=none;endFill=0;fontFamily=Times New Roman;" parent="1" source="XVunq-hZrcPURqs-6oLk-8" target="XVunq-hZrcPURqs-6oLk-9" edge="1">
          <mxGeometry relative="1" as="geometry" />
        </mxCell>
        <mxCell id="XVunq-hZrcPURqs-6oLk-21" style="edgeStyle=orthogonalEdgeStyle;rounded=0;orthogonalLoop=1;jettySize=auto;html=1;exitX=0.5;exitY=1;exitDx=0;exitDy=0;exitPerimeter=0;entryX=0;entryY=0.5;entryDx=0;entryDy=0;strokeWidth=2;endArrow=none;endFill=0;fontFamily=Times New Roman;" parent="1" source="XVunq-hZrcPURqs-6oLk-8" target="XVunq-hZrcPURqs-6oLk-19" edge="1">
          <mxGeometry relative="1" as="geometry" />
        </mxCell>
        <mxCell id="XVunq-hZrcPURqs-6oLk-8" value="Какая кнопка?" style="strokeWidth=2;html=1;shape=mxgraph.flowchart.decision;whiteSpace=wrap;fontFamily=Times New Roman;" parent="1" vertex="1">
          <mxGeometry x="161.89" y="481.26" width="118.11" height="78.74" as="geometry" />
        </mxCell>
        <mxCell id="XVunq-hZrcPURqs-6oLk-22" style="edgeStyle=orthogonalEdgeStyle;rounded=0;orthogonalLoop=1;jettySize=auto;html=1;exitX=1;exitY=0.5;exitDx=0;exitDy=0;entryX=0;entryY=0.5;entryDx=0;entryDy=0;strokeWidth=2;endArrow=none;endFill=0;fontFamily=Times New Roman;" parent="1" source="XVunq-hZrcPURqs-6oLk-9" target="XVunq-hZrcPURqs-6oLk-18" edge="1">
          <mxGeometry relative="1" as="geometry" />
        </mxCell>
        <mxCell id="XVunq-hZrcPURqs-6oLk-9" value="Открываем страницу для отправки документа &quot;Cчёт-фактура&quot;" style="rounded=0;whiteSpace=wrap;html=1;absoluteArcSize=1;arcSize=14;strokeWidth=2;fontFamily=Times New Roman;" parent="1" vertex="1">
          <mxGeometry x="381.89" y="560.26" width="118.11" height="78.74" as="geometry" />
        </mxCell>
        <mxCell id="XVunq-hZrcPURqs-6oLk-10" value="case: Кнопка &quot;Получить&quot;" style="text;html=1;align=center;verticalAlign=middle;resizable=0;points=[];autosize=1;strokeColor=none;fillColor=none;fontFamily=Times New Roman;" parent="1" vertex="1">
          <mxGeometry x="226.89" y="570" width="150" height="30" as="geometry" />
        </mxCell>
        <mxCell id="XVunq-hZrcPURqs-6oLk-11" value="case: Кнопка &quot;Не надо&quot;" style="text;html=1;align=center;verticalAlign=middle;resizable=0;points=[];autosize=1;strokeColor=none;fillColor=none;fontFamily=Times New Roman;" parent="1" vertex="1">
          <mxGeometry x="226.89" y="660" width="140" height="30" as="geometry" />
        </mxCell>
        <mxCell id="XVunq-hZrcPURqs-6oLk-23" style="edgeStyle=orthogonalEdgeStyle;rounded=0;orthogonalLoop=1;jettySize=auto;html=1;exitX=1;exitY=0.5;exitDx=0;exitDy=0;entryX=0.5;entryY=0;entryDx=0;entryDy=0;strokeWidth=2;endArrow=none;endFill=0;fontFamily=Times New Roman;" parent="1" source="XVunq-hZrcPURqs-6oLk-18" target="XVunq-hZrcPURqs-6oLk-29" edge="1">
          <mxGeometry relative="1" as="geometry">
            <mxPoint x="89.05500000000006" y="877.74" as="targetPoint" />
            <Array as="points">
              <mxPoint x="660" y="599" />
              <mxPoint x="660" y="740" />
              <mxPoint x="99" y="740" />
            </Array>
          </mxGeometry>
        </mxCell>
        <mxCell id="XVunq-hZrcPURqs-6oLk-18" value="Закрытие сообщения" style="rounded=0;whiteSpace=wrap;html=1;absoluteArcSize=1;arcSize=14;strokeWidth=2;fontFamily=Times New Roman;" parent="1" vertex="1">
          <mxGeometry x="521.89" y="560" width="118.11" height="78.74" as="geometry" />
        </mxCell>
        <mxCell id="XVunq-hZrcPURqs-6oLk-24" style="edgeStyle=orthogonalEdgeStyle;rounded=0;orthogonalLoop=1;jettySize=auto;html=1;exitX=1;exitY=0.5;exitDx=0;exitDy=0;entryX=0.5;entryY=0;entryDx=0;entryDy=0;strokeWidth=2;endArrow=none;endFill=0;fontFamily=Times New Roman;" parent="1" source="XVunq-hZrcPURqs-6oLk-19" target="XVunq-hZrcPURqs-6oLk-29" edge="1">
          <mxGeometry relative="1" as="geometry">
            <mxPoint x="89.05500000000006" y="877.74" as="targetPoint" />
            <Array as="points">
              <mxPoint x="660" y="689" />
              <mxPoint x="660" y="740" />
              <mxPoint x="99" y="740" />
            </Array>
          </mxGeometry>
        </mxCell>
        <mxCell id="XVunq-hZrcPURqs-6oLk-19" value="Закрытие сообщения" style="rounded=0;whiteSpace=wrap;html=1;absoluteArcSize=1;arcSize=14;strokeWidth=2;fontFamily=Times New Roman;" parent="1" vertex="1">
          <mxGeometry x="521.89" y="650" width="118.11" height="78.74" as="geometry" />
        </mxCell>
        <mxCell id="XVunq-hZrcPURqs-6oLk-26" value="" style="endArrow=classic;html=1;rounded=0;strokeWidth=2;fontFamily=Times New Roman;" parent="1" edge="1">
          <mxGeometry width="50" height="50" relative="1" as="geometry">
            <mxPoint x="140.0000000000001" y="740" as="sourcePoint" />
            <mxPoint x="100.00000000000011" y="740" as="targetPoint" />
          </mxGeometry>
        </mxCell>
        <mxCell id="XVunq-hZrcPURqs-6oLk-27" value="Да" style="text;html=1;align=center;verticalAlign=middle;resizable=0;points=[];autosize=1;strokeColor=none;fillColor=none;fontFamily=Times New Roman;" parent="1" vertex="1">
          <mxGeometry x="60" y="278.74" width="40" height="30" as="geometry" />
        </mxCell>
        <mxCell id="XVunq-hZrcPURqs-6oLk-28" value="Нет" style="text;html=1;align=center;verticalAlign=middle;resizable=0;points=[];autosize=1;strokeColor=none;fillColor=none;fontFamily=Times New Roman;" parent="1" vertex="1">
          <mxGeometry x="158.11" y="210" width="40" height="30" as="geometry" />
        </mxCell>
        <mxCell id="XVunq-hZrcPURqs-6oLk-33" style="edgeStyle=orthogonalEdgeStyle;rounded=0;orthogonalLoop=1;jettySize=auto;html=1;exitX=0.5;exitY=1;exitDx=0;exitDy=0;entryX=0.5;entryY=0;entryDx=0;entryDy=0;entryPerimeter=0;strokeWidth=2;endArrow=none;endFill=0;fontFamily=Times New Roman;" parent="1" source="XVunq-hZrcPURqs-6oLk-29" target="XVunq-hZrcPURqs-6oLk-31" edge="1">
          <mxGeometry relative="1" as="geometry" />
        </mxCell>
        <mxCell id="XVunq-hZrcPURqs-6oLk-29" value="Разблокируем кнопку оформления заказа" style="rounded=0;whiteSpace=wrap;html=1;absoluteArcSize=1;arcSize=14;strokeWidth=2;fontFamily=Times New Roman;" parent="1" vertex="1">
          <mxGeometry x="40" y="799.37" width="118.11" height="78.74" as="geometry" />
        </mxCell>
        <mxCell id="XVunq-hZrcPURqs-6oLk-31" value="Конец" style="strokeWidth=2;html=1;shape=mxgraph.flowchart.terminator;whiteSpace=wrap;fontFamily=Times New Roman;" parent="1" vertex="1">
          <mxGeometry x="40" y="914.99" width="118.11" height="39.37" as="geometry" />
        </mxCell>
        <mxCell id="XVunq-hZrcPURqs-6oLk-44" style="edgeStyle=orthogonalEdgeStyle;rounded=0;orthogonalLoop=1;jettySize=auto;html=1;exitX=0.5;exitY=1;exitDx=0;exitDy=0;exitPerimeter=0;entryX=0.5;entryY=0;entryDx=0;entryDy=0;entryPerimeter=0;strokeWidth=2;endArrow=none;endFill=0;fontFamily=Times New Roman;" parent="1" source="XVunq-hZrcPURqs-6oLk-34" target="XVunq-hZrcPURqs-6oLk-35" edge="1">
          <mxGeometry relative="1" as="geometry" />
        </mxCell>
        <mxCell id="XVunq-hZrcPURqs-6oLk-34" value="Начало" style="strokeWidth=2;html=1;shape=mxgraph.flowchart.terminator;whiteSpace=wrap;fontFamily=Times New Roman;" parent="1" vertex="1">
          <mxGeometry x="265" y="805.32" width="118.11" height="39.37" as="geometry" />
        </mxCell>
        <mxCell id="XVunq-hZrcPURqs-6oLk-39" style="edgeStyle=orthogonalEdgeStyle;rounded=0;orthogonalLoop=1;jettySize=auto;html=1;exitX=0;exitY=0.5;exitDx=0;exitDy=0;exitPerimeter=0;entryX=0.5;entryY=0;entryDx=0;entryDy=0;strokeWidth=2;endArrow=none;endFill=0;fontFamily=Times New Roman;" parent="1" source="XVunq-hZrcPURqs-6oLk-35" target="XVunq-hZrcPURqs-6oLk-36" edge="1">
          <mxGeometry relative="1" as="geometry" />
        </mxCell>
        <mxCell id="XVunq-hZrcPURqs-6oLk-40" style="edgeStyle=orthogonalEdgeStyle;rounded=0;orthogonalLoop=1;jettySize=auto;html=1;exitX=1;exitY=0.5;exitDx=0;exitDy=0;exitPerimeter=0;entryX=0.5;entryY=0;entryDx=0;entryDy=0;strokeWidth=2;endArrow=none;endFill=0;fontFamily=Times New Roman;" parent="1" source="XVunq-hZrcPURqs-6oLk-35" target="XVunq-hZrcPURqs-6oLk-37" edge="1">
          <mxGeometry relative="1" as="geometry" />
        </mxCell>
        <mxCell id="XVunq-hZrcPURqs-6oLk-35" value="Корзина пуста?" style="strokeWidth=2;html=1;shape=mxgraph.flowchart.decision;whiteSpace=wrap;fontFamily=Times New Roman;" parent="1" vertex="1">
          <mxGeometry x="265" y="865.32" width="118.11" height="78.74" as="geometry" />
        </mxCell>
        <mxCell id="XVunq-hZrcPURqs-6oLk-41" style="edgeStyle=orthogonalEdgeStyle;rounded=0;orthogonalLoop=1;jettySize=auto;html=1;exitX=0.5;exitY=1;exitDx=0;exitDy=0;entryX=0.5;entryY=0;entryDx=0;entryDy=0;entryPerimeter=0;strokeWidth=2;endArrow=none;endFill=0;fontFamily=Times New Roman;" parent="1" source="XVunq-hZrcPURqs-6oLk-36" target="XVunq-hZrcPURqs-6oLk-38" edge="1">
          <mxGeometry relative="1" as="geometry" />
        </mxCell>
        <mxCell id="XVunq-hZrcPURqs-6oLk-36" value="Отобразить кнопку&lt;br&gt;&quot;Выбрать товары&quot;" style="rounded=0;whiteSpace=wrap;html=1;absoluteArcSize=1;arcSize=14;strokeWidth=2;fontFamily=Times New Roman;" parent="1" vertex="1">
          <mxGeometry x="185" y="965.32" width="118.11" height="78.74" as="geometry" />
        </mxCell>
        <mxCell id="XVunq-hZrcPURqs-6oLk-42" style="edgeStyle=orthogonalEdgeStyle;rounded=0;orthogonalLoop=1;jettySize=auto;html=1;exitX=0.5;exitY=1;exitDx=0;exitDy=0;entryX=0.5;entryY=0;entryDx=0;entryDy=0;entryPerimeter=0;strokeWidth=2;endArrow=none;endFill=0;fontFamily=Times New Roman;" parent="1" source="XVunq-hZrcPURqs-6oLk-37" target="XVunq-hZrcPURqs-6oLk-38" edge="1">
          <mxGeometry relative="1" as="geometry" />
        </mxCell>
        <mxCell id="XVunq-hZrcPURqs-6oLk-37" value="Отобразить список и кнопку&lt;br&gt;&quot;Оформить заказ&quot;" style="rounded=0;whiteSpace=wrap;html=1;absoluteArcSize=1;arcSize=14;strokeWidth=2;fontFamily=Times New Roman;" parent="1" vertex="1">
          <mxGeometry x="346.89" y="965.32" width="118.11" height="78.74" as="geometry" />
        </mxCell>
        <mxCell id="XVunq-hZrcPURqs-6oLk-38" value="Конец" style="strokeWidth=2;html=1;shape=mxgraph.flowchart.terminator;whiteSpace=wrap;fontFamily=Times New Roman;" parent="1" vertex="1">
          <mxGeometry x="265" y="1086.3200000000002" width="118.11" height="39.37" as="geometry" />
        </mxCell>
        <mxCell id="XVunq-hZrcPURqs-6oLk-43" value="" style="endArrow=classic;html=1;rounded=0;strokeWidth=2;fontFamily=Times New Roman;" parent="1" edge="1">
          <mxGeometry width="50" height="50" relative="1" as="geometry">
            <mxPoint x="366.0000000000001" y="1065.19" as="sourcePoint" />
            <mxPoint x="326.0000000000001" y="1065.19" as="targetPoint" />
          </mxGeometry>
        </mxCell>
        <mxCell id="XVunq-hZrcPURqs-6oLk-45" value="Да" style="text;html=1;align=center;verticalAlign=middle;resizable=0;points=[];autosize=1;strokeColor=none;fillColor=none;fontFamily=Times New Roman;" parent="1" vertex="1">
          <mxGeometry x="235" y="875.32" width="40" height="30" as="geometry" />
        </mxCell>
        <mxCell id="XVunq-hZrcPURqs-6oLk-46" value="Нет" style="text;html=1;align=center;verticalAlign=middle;resizable=0;points=[];autosize=1;strokeColor=none;fillColor=none;fontFamily=Times New Roman;" parent="1" vertex="1">
          <mxGeometry x="375" y="875.32" width="40" height="30" as="geometry" />
        </mxCell>
        <mxCell id="XVunq-hZrcPURqs-6oLk-48" style="edgeStyle=orthogonalEdgeStyle;rounded=0;orthogonalLoop=1;jettySize=auto;html=1;exitX=0;exitY=0.5;exitDx=0;exitDy=0;exitPerimeter=0;entryX=1;entryY=0.5;entryDx=0;entryDy=0;strokeWidth=2;dashed=1;endArrow=none;endFill=0;fontFamily=Times New Roman;" parent="1" source="XVunq-hZrcPURqs-6oLk-47" target="XVunq-hZrcPURqs-6oLk-6" edge="1">
          <mxGeometry relative="1" as="geometry" />
        </mxCell>
        <mxCell id="XVunq-hZrcPURqs-6oLk-47" value="Отправлеяем HTTP запрос на сервер&lt;br&gt;в заголовке токен доступа&lt;br&gt;в теле запроса массив, содержащий:&lt;br&gt;- ид номенклатуры&lt;br&gt;- количество" style="strokeWidth=2;html=1;shape=mxgraph.flowchart.annotation_2;align=left;labelPosition=right;pointerEvents=1;fontFamily=Times New Roman;" parent="1" vertex="1">
          <mxGeometry x="320" y="468.26" width="10" height="90" as="geometry" />
        </mxCell>
        <mxCell id="XVunq-hZrcPURqs-6oLk-59" style="edgeStyle=orthogonalEdgeStyle;rounded=0;orthogonalLoop=1;jettySize=auto;html=1;exitX=0.5;exitY=1;exitDx=0;exitDy=0;exitPerimeter=0;entryX=0.5;entryY=0;entryDx=0;entryDy=0;strokeWidth=2;endArrow=none;endFill=0;fontFamily=Times New Roman;" parent="1" source="XVunq-hZrcPURqs-6oLk-49" target="XVunq-hZrcPURqs-6oLk-51" edge="1">
          <mxGeometry relative="1" as="geometry" />
        </mxCell>
        <mxCell id="XVunq-hZrcPURqs-6oLk-49" value="Начало" style="strokeWidth=2;html=1;shape=mxgraph.flowchart.terminator;whiteSpace=wrap;fontFamily=Times New Roman;" parent="1" vertex="1">
          <mxGeometry x="860" y="40" width="118.11" height="39.37" as="geometry" />
        </mxCell>
        <mxCell id="XVunq-hZrcPURqs-6oLk-61" style="edgeStyle=orthogonalEdgeStyle;rounded=0;orthogonalLoop=1;jettySize=auto;html=1;exitX=0.5;exitY=1;exitDx=0;exitDy=0;entryX=0.5;entryY=0;entryDx=0;entryDy=0;entryPerimeter=0;strokeWidth=2;endArrow=none;endFill=0;fontFamily=Times New Roman;" parent="1" source="XVunq-hZrcPURqs-6oLk-50" target="XVunq-hZrcPURqs-6oLk-52" edge="1">
          <mxGeometry relative="1" as="geometry" />
        </mxCell>
        <mxCell id="XVunq-hZrcPURqs-6oLk-50" value="Отбор выборки содержашие ид из множества" style="rounded=0;whiteSpace=wrap;html=1;absoluteArcSize=1;arcSize=14;strokeWidth=2;fontFamily=Times New Roman;" parent="1" vertex="1">
          <mxGeometry x="860" y="198" width="118.11" height="78.74" as="geometry" />
        </mxCell>
        <mxCell id="XVunq-hZrcPURqs-6oLk-60" style="edgeStyle=orthogonalEdgeStyle;rounded=0;orthogonalLoop=1;jettySize=auto;html=1;exitX=0.5;exitY=1;exitDx=0;exitDy=0;entryX=0.5;entryY=0;entryDx=0;entryDy=0;strokeWidth=2;endArrow=none;endFill=0;fontFamily=Times New Roman;" parent="1" source="XVunq-hZrcPURqs-6oLk-51" target="XVunq-hZrcPURqs-6oLk-50" edge="1">
          <mxGeometry relative="1" as="geometry" />
        </mxCell>
        <mxCell id="XVunq-hZrcPURqs-6oLk-51" value="Получаем множество ид номенклатуры" style="rounded=0;whiteSpace=wrap;html=1;absoluteArcSize=1;arcSize=14;strokeWidth=2;fontFamily=Times New Roman;" parent="1" vertex="1">
          <mxGeometry x="860" y="98" width="118.11" height="78.74" as="geometry" />
        </mxCell>
        <mxCell id="XVunq-hZrcPURqs-6oLk-62" style="edgeStyle=orthogonalEdgeStyle;rounded=0;orthogonalLoop=1;jettySize=auto;html=1;exitX=0.5;exitY=1;exitDx=0;exitDy=0;exitPerimeter=0;entryX=0.5;entryY=0;entryDx=0;entryDy=0;strokeWidth=2;endArrow=none;endFill=0;fontFamily=Times New Roman;" parent="1" source="XVunq-hZrcPURqs-6oLk-52" target="XVunq-hZrcPURqs-6oLk-56" edge="1">
          <mxGeometry relative="1" as="geometry" />
        </mxCell>
        <mxCell id="XVunq-hZrcPURqs-6oLk-63" style="edgeStyle=orthogonalEdgeStyle;rounded=0;orthogonalLoop=1;jettySize=auto;html=1;exitX=0;exitY=0.5;exitDx=0;exitDy=0;exitPerimeter=0;entryX=0.5;entryY=0;entryDx=0;entryDy=0;strokeWidth=2;endArrow=none;endFill=0;fontFamily=Times New Roman;" parent="1" source="XVunq-hZrcPURqs-6oLk-52" target="XVunq-hZrcPURqs-6oLk-53" edge="1">
          <mxGeometry relative="1" as="geometry" />
        </mxCell>
        <mxCell id="XVunq-hZrcPURqs-6oLk-52" value="Размер&lt;br&gt;выборки&lt;br&gt;нуль?" style="strokeWidth=2;html=1;shape=mxgraph.flowchart.decision;whiteSpace=wrap;fontFamily=Times New Roman;" parent="1" vertex="1">
          <mxGeometry x="860" y="289" width="118.11" height="78.74" as="geometry" />
        </mxCell>
        <mxCell id="XVunq-hZrcPURqs-6oLk-141" style="edgeStyle=orthogonalEdgeStyle;rounded=0;orthogonalLoop=1;jettySize=auto;html=1;exitX=0.5;exitY=1;exitDx=0;exitDy=0;entryX=0.5;entryY=0;entryDx=0;entryDy=0;entryPerimeter=0;strokeWidth=2;endArrow=none;endFill=0;fontFamily=Times New Roman;" parent="1" source="XVunq-hZrcPURqs-6oLk-53" target="XVunq-hZrcPURqs-6oLk-58" edge="1">
          <mxGeometry relative="1" as="geometry">
            <Array as="points">
              <mxPoint x="789" y="778" />
              <mxPoint x="919" y="778" />
            </Array>
          </mxGeometry>
        </mxCell>
        <mxCell id="XVunq-hZrcPURqs-6oLk-53" value="Исключение со HTTP статусом 404" style="rounded=0;whiteSpace=wrap;html=1;absoluteArcSize=1;arcSize=14;strokeWidth=2;fontFamily=Times New Roman;" parent="1" vertex="1">
          <mxGeometry x="730" y="379.26" width="118.11" height="78.74" as="geometry" />
        </mxCell>
        <mxCell id="XVunq-hZrcPURqs-6oLk-66" style="edgeStyle=orthogonalEdgeStyle;rounded=0;orthogonalLoop=1;jettySize=auto;html=1;exitX=1;exitY=0.5;exitDx=0;exitDy=0;exitPerimeter=0;entryX=0.5;entryY=0;entryDx=0;entryDy=0;endArrow=none;endFill=0;strokeWidth=2;fontFamily=Times New Roman;" parent="1" source="XVunq-hZrcPURqs-6oLk-55" target="XVunq-hZrcPURqs-6oLk-57" edge="1">
          <mxGeometry relative="1" as="geometry" />
        </mxCell>
        <mxCell id="XVunq-hZrcPURqs-6oLk-72" style="edgeStyle=orthogonalEdgeStyle;rounded=0;orthogonalLoop=1;jettySize=auto;html=1;exitX=0.5;exitY=1;exitDx=0;exitDy=0;exitPerimeter=0;entryX=0.5;entryY=0;entryDx=0;entryDy=0;strokeWidth=2;endArrow=none;endFill=0;fontFamily=Times New Roman;" parent="1" source="XVunq-hZrcPURqs-6oLk-55" target="XVunq-hZrcPURqs-6oLk-71" edge="1">
          <mxGeometry relative="1" as="geometry" />
        </mxCell>
        <mxCell id="XVunq-hZrcPURqs-6oLk-55" value="Транзакция выполнена" style="strokeWidth=2;html=1;shape=mxgraph.flowchart.decision;whiteSpace=wrap;fontFamily=Times New Roman;" parent="1" vertex="1">
          <mxGeometry x="860" y="479.52" width="118.11" height="78.74" as="geometry" />
        </mxCell>
        <mxCell id="XVunq-hZrcPURqs-6oLk-64" style="edgeStyle=orthogonalEdgeStyle;rounded=0;orthogonalLoop=1;jettySize=auto;html=1;exitX=0.5;exitY=1;exitDx=0;exitDy=0;entryX=0.5;entryY=0;entryDx=0;entryDy=0;entryPerimeter=0;strokeWidth=2;endArrow=none;endFill=0;fontFamily=Times New Roman;" parent="1" source="XVunq-hZrcPURqs-6oLk-56" target="XVunq-hZrcPURqs-6oLk-55" edge="1">
          <mxGeometry relative="1" as="geometry" />
        </mxCell>
        <mxCell id="XVunq-hZrcPURqs-6oLk-56" value="Выполнение транзакции" style="verticalLabelPosition=middle;verticalAlign=middle;html=1;shape=process;whiteSpace=wrap;rounded=0;size=0.14;arcSize=6;labelPosition=center;align=center;strokeWidth=2;fontFamily=Times New Roman;" parent="1" vertex="1">
          <mxGeometry x="860" y="379.26" width="118.11" height="78.74" as="geometry" />
        </mxCell>
        <mxCell id="XVunq-hZrcPURqs-6oLk-144" style="edgeStyle=orthogonalEdgeStyle;rounded=0;orthogonalLoop=1;jettySize=auto;html=1;exitX=0.5;exitY=1;exitDx=0;exitDy=0;entryX=0.5;entryY=0;entryDx=0;entryDy=0;strokeWidth=2;endArrow=none;endFill=0;fontFamily=Times New Roman;" parent="1" source="XVunq-hZrcPURqs-6oLk-57" target="XVunq-hZrcPURqs-6oLk-140" edge="1">
          <mxGeometry relative="1" as="geometry" />
        </mxCell>
        <mxCell id="XVunq-hZrcPURqs-6oLk-57" value="Откат транзакции" style="rounded=0;whiteSpace=wrap;html=1;absoluteArcSize=1;arcSize=14;strokeWidth=2;fontFamily=Times New Roman;" parent="1" vertex="1">
          <mxGeometry x="1000" y="568" width="118.11" height="78.74" as="geometry" />
        </mxCell>
        <mxCell id="XVunq-hZrcPURqs-6oLk-58" value="Конец" style="strokeWidth=2;html=1;shape=mxgraph.flowchart.terminator;whiteSpace=wrap;fontFamily=Times New Roman;" parent="1" vertex="1">
          <mxGeometry x="860" y="799.3700000000001" width="118.11" height="39.37" as="geometry" />
        </mxCell>
        <mxCell id="XVunq-hZrcPURqs-6oLk-70" value="" style="endArrow=classic;html=1;rounded=0;strokeWidth=2;fontFamily=Times New Roman;" parent="1" edge="1">
          <mxGeometry width="50" height="50" relative="1" as="geometry">
            <mxPoint x="660.6300000000001" y="739.8900000000001" as="sourcePoint" />
            <mxPoint x="620.6300000000001" y="739.8900000000001" as="targetPoint" />
          </mxGeometry>
        </mxCell>
        <mxCell id="XVunq-hZrcPURqs-6oLk-143" style="edgeStyle=orthogonalEdgeStyle;rounded=0;orthogonalLoop=1;jettySize=auto;html=1;exitX=0.5;exitY=1;exitDx=0;exitDy=0;entryX=0.5;entryY=0;entryDx=0;entryDy=0;entryPerimeter=0;strokeWidth=2;endArrow=none;endFill=0;fontFamily=Times New Roman;" parent="1" source="XVunq-hZrcPURqs-6oLk-71" target="XVunq-hZrcPURqs-6oLk-58" edge="1">
          <mxGeometry relative="1" as="geometry" />
        </mxCell>
        <mxCell id="XVunq-hZrcPURqs-6oLk-71" value="HTTP cтатус 201" style="rounded=0;whiteSpace=wrap;html=1;absoluteArcSize=1;arcSize=14;strokeWidth=2;fontFamily=Times New Roman;" parent="1" vertex="1">
          <mxGeometry x="860" y="568" width="118.11" height="78.74" as="geometry" />
        </mxCell>
        <mxCell id="XVunq-hZrcPURqs-6oLk-75" style="edgeStyle=orthogonalEdgeStyle;rounded=0;orthogonalLoop=1;jettySize=auto;html=1;exitX=0;exitY=0.5;exitDx=0;exitDy=0;exitPerimeter=0;entryX=1;entryY=0.5;entryDx=0;entryDy=0;entryPerimeter=0;strokeWidth=2;endArrow=none;endFill=0;dashed=1;fontFamily=Times New Roman;" parent="1" source="XVunq-hZrcPURqs-6oLk-74" target="XVunq-hZrcPURqs-6oLk-1" edge="1">
          <mxGeometry relative="1" as="geometry">
            <Array as="points">
              <mxPoint x="180" y="83" />
              <mxPoint x="180" y="60" />
            </Array>
          </mxGeometry>
        </mxCell>
        <mxCell id="XVunq-hZrcPURqs-6oLk-74" value="Функция makeOrder,&lt;br&gt;которая отправляет корзину в&lt;br&gt;теле HTTP запроса&lt;br&gt;с мобильного приложения&lt;br&gt;на сервер.&lt;br&gt;&lt;br&gt;Эта функция вызывается&lt;br&gt;при нажатии кнопки&lt;br&gt;&quot;Оформить заказ&quot;" style="strokeWidth=2;html=1;shape=mxgraph.flowchart.annotation_2;align=left;labelPosition=right;pointerEvents=1;fontFamily=Times New Roman;" parent="1" vertex="1">
          <mxGeometry x="198.11" y="20" width="10" height="125.48" as="geometry" />
        </mxCell>
        <mxCell id="XVunq-hZrcPURqs-6oLk-77" style="edgeStyle=orthogonalEdgeStyle;rounded=0;orthogonalLoop=1;jettySize=auto;html=1;exitX=0;exitY=0.5;exitDx=0;exitDy=0;exitPerimeter=0;entryX=1;entryY=0.5;entryDx=0;entryDy=0;entryPerimeter=0;strokeWidth=2;endArrow=none;endFill=0;dashed=1;fontFamily=Times New Roman;" parent="1" source="XVunq-hZrcPURqs-6oLk-76" target="XVunq-hZrcPURqs-6oLk-34" edge="1">
          <mxGeometry relative="1" as="geometry">
            <Array as="points">
              <mxPoint x="410" y="843" />
              <mxPoint x="410" y="825" />
            </Array>
          </mxGeometry>
        </mxCell>
        <mxCell id="XVunq-hZrcPURqs-6oLk-76" value="Функция BasketPage отрисовывает&lt;br&gt;страницу &quot;Корзина&quot;&lt;br&gt;в мобильном приложении&lt;br&gt;&lt;br&gt;Если в корзине нет товаров,&lt;br&gt;то кнопка &quot;Оформить заказ&quot;&lt;br&gt;пропадает и появляется кнопка&lt;br&gt;&quot;Выбрать товары&quot;." style="strokeWidth=2;html=1;shape=mxgraph.flowchart.annotation_2;align=left;labelPosition=right;pointerEvents=1;fontFamily=Times New Roman;" parent="1" vertex="1">
          <mxGeometry x="429.37" y="780.6400000000001" width="10.94" height="124.68" as="geometry" />
        </mxCell>
        <mxCell id="XVunq-hZrcPURqs-6oLk-98" style="edgeStyle=orthogonalEdgeStyle;rounded=0;orthogonalLoop=1;jettySize=auto;html=1;exitX=0.5;exitY=1;exitDx=0;exitDy=0;exitPerimeter=0;entryX=0.5;entryY=0;entryDx=0;entryDy=0;strokeWidth=2;endArrow=none;endFill=0;fontFamily=Times New Roman;" parent="1" source="XVunq-hZrcPURqs-6oLk-78" target="XVunq-hZrcPURqs-6oLk-79" edge="1">
          <mxGeometry relative="1" as="geometry" />
        </mxCell>
        <mxCell id="XVunq-hZrcPURqs-6oLk-138" style="edgeStyle=orthogonalEdgeStyle;rounded=0;orthogonalLoop=1;jettySize=auto;html=1;exitX=0;exitY=0.5;exitDx=0;exitDy=0;exitPerimeter=0;entryX=1;entryY=0.5;entryDx=0;entryDy=0;strokeWidth=2;dashed=1;endArrow=none;endFill=0;fontFamily=Times New Roman;" parent="1" source="XVunq-hZrcPURqs-6oLk-78" target="XVunq-hZrcPURqs-6oLk-56" edge="1">
          <mxGeometry relative="1" as="geometry">
            <Array as="points">
              <mxPoint x="1180" y="58" />
              <mxPoint x="1180" y="419" />
            </Array>
          </mxGeometry>
        </mxCell>
        <mxCell id="XVunq-hZrcPURqs-6oLk-78" value="Начало транзакции" style="strokeWidth=2;html=1;shape=mxgraph.flowchart.terminator;whiteSpace=wrap;fontFamily=Times New Roman;" parent="1" vertex="1">
          <mxGeometry x="1240" y="40" width="118.11" height="39.37" as="geometry" />
        </mxCell>
        <mxCell id="XVunq-hZrcPURqs-6oLk-99" style="edgeStyle=orthogonalEdgeStyle;rounded=0;orthogonalLoop=1;jettySize=auto;html=1;exitX=0.5;exitY=1;exitDx=0;exitDy=0;entryX=0.5;entryY=0;entryDx=0;entryDy=0;entryPerimeter=0;strokeWidth=2;endArrow=none;endFill=0;fontFamily=Times New Roman;" parent="1" source="XVunq-hZrcPURqs-6oLk-79" target="XVunq-hZrcPURqs-6oLk-81" edge="1">
          <mxGeometry relative="1" as="geometry" />
        </mxCell>
        <mxCell id="XVunq-hZrcPURqs-6oLk-79" value="Создание&lt;br&gt;счетчиков&lt;br&gt;и пустых массивов" style="rounded=0;whiteSpace=wrap;html=1;absoluteArcSize=1;arcSize=14;strokeWidth=2;fontFamily=Times New Roman;" parent="1" vertex="1">
          <mxGeometry x="1240" y="100" width="118.11" height="78.74" as="geometry" />
        </mxCell>
        <mxCell id="XVunq-hZrcPURqs-6oLk-111" style="edgeStyle=orthogonalEdgeStyle;rounded=0;orthogonalLoop=1;jettySize=auto;html=1;exitX=0;exitY=0.5;exitDx=0;exitDy=0;exitPerimeter=0;strokeWidth=2;endArrow=none;endFill=0;dashed=1;fontFamily=Times New Roman;" parent="1" source="XVunq-hZrcPURqs-6oLk-80" target="XVunq-hZrcPURqs-6oLk-79" edge="1">
          <mxGeometry relative="1" as="geometry">
            <Array as="points">
              <mxPoint x="1370" y="197" />
              <mxPoint x="1370" y="139" />
            </Array>
          </mxGeometry>
        </mxCell>
        <mxCell id="XVunq-hZrcPURqs-6oLk-80" value="номерПоПорядку = 0&lt;br style=&quot;border-color: var(--border-color); text-align: center;&quot;&gt;&lt;span style=&quot;text-align: center;&quot;&gt;сумма = 0&lt;/span&gt;&lt;br style=&quot;border-color: var(--border-color); text-align: center;&quot;&gt;&lt;span style=&quot;text-align: center;&quot;&gt;суммаНДС = 0&lt;/span&gt;&lt;br style=&quot;border-color: var(--border-color); text-align: center;&quot;&gt;&lt;span style=&quot;text-align: center;&quot;&gt;всегоНДС = 0&lt;br&gt;массивБД = []&lt;br&gt;массивEmail = []&lt;br&gt;&lt;/span&gt;" style="strokeWidth=2;html=1;shape=mxgraph.flowchart.annotation_2;align=left;labelPosition=right;pointerEvents=1;fontFamily=Times New Roman;" parent="1" vertex="1">
          <mxGeometry x="1380" y="154.04999999999998" width="10" height="85.95" as="geometry" />
        </mxCell>
        <mxCell id="XVunq-hZrcPURqs-6oLk-101" style="edgeStyle=orthogonalEdgeStyle;rounded=0;orthogonalLoop=1;jettySize=auto;html=1;exitX=0.5;exitY=1;exitDx=0;exitDy=0;exitPerimeter=0;entryX=0.5;entryY=0;entryDx=0;entryDy=0;strokeWidth=2;endArrow=none;endFill=0;fontFamily=Times New Roman;" parent="1" source="XVunq-hZrcPURqs-6oLk-81" target="XVunq-hZrcPURqs-6oLk-82" edge="1">
          <mxGeometry relative="1" as="geometry" />
        </mxCell>
        <mxCell id="XVunq-hZrcPURqs-6oLk-81" value="i = 0&lt;br&gt;i &amp;lt; dto.items.length" style="strokeWidth=2;html=1;shape=mxgraph.flowchart.loop_limit;whiteSpace=wrap;fontFamily=Times New Roman;" parent="1" vertex="1">
          <mxGeometry x="1240" y="200" width="118.11" height="78.74" as="geometry" />
        </mxCell>
        <mxCell id="XVunq-hZrcPURqs-6oLk-189" style="edgeStyle=orthogonalEdgeStyle;rounded=0;orthogonalLoop=1;jettySize=auto;html=1;exitX=0.5;exitY=1;exitDx=0;exitDy=0;entryX=0.5;entryY=0;entryDx=0;entryDy=0;entryPerimeter=0;strokeWidth=2;endArrow=none;endFill=0;fontFamily=Times New Roman;" parent="1" source="XVunq-hZrcPURqs-6oLk-82" target="XVunq-hZrcPURqs-6oLk-93" edge="1">
          <mxGeometry relative="1" as="geometry" />
        </mxCell>
        <mxCell id="XVunq-hZrcPURqs-6oLk-82" value="товарЗак = dto.items[i]" style="rounded=0;whiteSpace=wrap;html=1;absoluteArcSize=1;arcSize=14;strokeWidth=2;fontFamily=Times New Roman;" parent="1" vertex="1">
          <mxGeometry x="1240" y="298" width="118.11" height="78.74" as="geometry" />
        </mxCell>
        <mxCell id="XVunq-hZrcPURqs-6oLk-84" style="edgeStyle=orthogonalEdgeStyle;rounded=0;orthogonalLoop=1;jettySize=auto;html=1;exitX=0;exitY=0.5;exitDx=0;exitDy=0;exitPerimeter=0;entryX=1;entryY=0.5;entryDx=0;entryDy=0;strokeWidth=2;endArrow=none;endFill=0;dashed=1;fontFamily=Times New Roman;" parent="1" source="XVunq-hZrcPURqs-6oLk-83" target="XVunq-hZrcPURqs-6oLk-50" edge="1">
          <mxGeometry relative="1" as="geometry" />
        </mxCell>
        <mxCell id="XVunq-hZrcPURqs-6oLk-83" value="Сохранение выборки&lt;br&gt;в переменную items." style="strokeWidth=2;html=1;shape=mxgraph.flowchart.annotation_2;align=left;labelPosition=right;pointerEvents=1;fontFamily=Times New Roman;" parent="1" vertex="1">
          <mxGeometry x="1005" y="219.4" width="10" height="35.95" as="geometry" />
        </mxCell>
        <mxCell id="XVunq-hZrcPURqs-6oLk-86" style="edgeStyle=orthogonalEdgeStyle;rounded=0;orthogonalLoop=1;jettySize=auto;html=1;exitX=0;exitY=0.5;exitDx=0;exitDy=0;exitPerimeter=0;strokeWidth=2;endArrow=none;endFill=0;dashed=1;fontFamily=Times New Roman;" parent="1" source="XVunq-hZrcPURqs-6oLk-85" target="XVunq-hZrcPURqs-6oLk-52" edge="1">
          <mxGeometry relative="1" as="geometry" />
        </mxCell>
        <mxCell id="XVunq-hZrcPURqs-6oLk-85" value="items.length === 0" style="strokeWidth=2;html=1;shape=mxgraph.flowchart.annotation_2;align=left;labelPosition=right;pointerEvents=1;fontFamily=Times New Roman;" parent="1" vertex="1">
          <mxGeometry x="1005" y="308.37" width="10" height="40" as="geometry" />
        </mxCell>
        <mxCell id="XVunq-hZrcPURqs-6oLk-87" value="Да" style="text;html=1;align=center;verticalAlign=middle;resizable=0;points=[];autosize=1;strokeColor=none;fillColor=none;fontFamily=Times New Roman;" parent="1" vertex="1">
          <mxGeometry x="860" y="538" width="40" height="30" as="geometry" />
        </mxCell>
        <mxCell id="XVunq-hZrcPURqs-6oLk-88" value="Нет" style="text;html=1;align=center;verticalAlign=middle;resizable=0;points=[];autosize=1;strokeColor=none;fillColor=none;fontFamily=Times New Roman;" parent="1" vertex="1">
          <mxGeometry x="975" y="488" width="40" height="30" as="geometry" />
        </mxCell>
        <mxCell id="XVunq-hZrcPURqs-6oLk-89" value="Да" style="text;html=1;align=center;verticalAlign=middle;resizable=0;points=[];autosize=1;strokeColor=none;fillColor=none;fontFamily=Times New Roman;" parent="1" vertex="1">
          <mxGeometry x="820" y="298" width="40" height="30" as="geometry" />
        </mxCell>
        <mxCell id="XVunq-hZrcPURqs-6oLk-90" value="Нет" style="text;html=1;align=center;verticalAlign=middle;resizable=0;points=[];autosize=1;strokeColor=none;fillColor=none;fontFamily=Times New Roman;" parent="1" vertex="1">
          <mxGeometry x="938.1099999999999" y="349.26" width="40" height="30" as="geometry" />
        </mxCell>
        <mxCell id="XVunq-hZrcPURqs-6oLk-186" style="edgeStyle=orthogonalEdgeStyle;rounded=0;orthogonalLoop=1;jettySize=auto;html=1;exitX=0.5;exitY=0;exitDx=0;exitDy=0;exitPerimeter=0;entryX=0.5;entryY=0;entryDx=0;entryDy=0;entryPerimeter=0;strokeWidth=2;endArrow=none;endFill=0;fontFamily=Times New Roman;" parent="1" source="XVunq-hZrcPURqs-6oLk-91" target="XVunq-hZrcPURqs-6oLk-185" edge="1">
          <mxGeometry relative="1" as="geometry" />
        </mxCell>
        <mxCell id="XVunq-hZrcPURqs-6oLk-91" value="Конец цикла&lt;br&gt;(i &amp;lt; dto.items.length)" style="strokeWidth=2;html=1;shape=mxgraph.flowchart.loop_limit;whiteSpace=wrap;flipH=1;flipV=1;fontFamily=Times New Roman;" parent="1" vertex="1">
          <mxGeometry x="1240" y="855.94" width="118.11" height="78.74" as="geometry" />
        </mxCell>
        <mxCell id="XVunq-hZrcPURqs-6oLk-108" style="edgeStyle=orthogonalEdgeStyle;rounded=0;orthogonalLoop=1;jettySize=auto;html=1;exitX=0.5;exitY=0;exitDx=0;exitDy=0;exitPerimeter=0;strokeWidth=2;endArrow=none;endFill=0;fontFamily=Times New Roman;" parent="1" source="XVunq-hZrcPURqs-6oLk-92" target="XVunq-hZrcPURqs-6oLk-91" edge="1">
          <mxGeometry relative="1" as="geometry" />
        </mxCell>
        <mxCell id="XVunq-hZrcPURqs-6oLk-92" value="Конец цикла&lt;br&gt;(i &amp;lt; items.length)" style="strokeWidth=2;html=1;shape=mxgraph.flowchart.loop_limit;whiteSpace=wrap;flipH=1;flipV=1;fontFamily=Times New Roman;" parent="1" vertex="1">
          <mxGeometry x="1240" y="740.61" width="118.11" height="78.74" as="geometry" />
        </mxCell>
        <mxCell id="XVunq-hZrcPURqs-6oLk-103" style="edgeStyle=orthogonalEdgeStyle;rounded=0;orthogonalLoop=1;jettySize=auto;html=1;exitX=0.5;exitY=1;exitDx=0;exitDy=0;exitPerimeter=0;entryX=0.5;entryY=0;entryDx=0;entryDy=0;strokeWidth=2;endArrow=none;endFill=0;fontFamily=Times New Roman;" parent="1" source="XVunq-hZrcPURqs-6oLk-93" target="XVunq-hZrcPURqs-6oLk-94" edge="1">
          <mxGeometry relative="1" as="geometry" />
        </mxCell>
        <mxCell id="XVunq-hZrcPURqs-6oLk-93" value="j = 0&lt;br&gt;j &amp;lt; items.length" style="strokeWidth=2;html=1;shape=mxgraph.flowchart.loop_limit;whiteSpace=wrap;fontFamily=Times New Roman;" parent="1" vertex="1">
          <mxGeometry x="1240" y="420" width="118.11" height="78.74" as="geometry" />
        </mxCell>
        <mxCell id="XVunq-hZrcPURqs-6oLk-104" style="edgeStyle=orthogonalEdgeStyle;rounded=0;orthogonalLoop=1;jettySize=auto;html=1;exitX=0.5;exitY=1;exitDx=0;exitDy=0;entryX=0.5;entryY=0;entryDx=0;entryDy=0;entryPerimeter=0;strokeWidth=2;endArrow=none;endFill=0;fontFamily=Times New Roman;" parent="1" source="XVunq-hZrcPURqs-6oLk-94" target="XVunq-hZrcPURqs-6oLk-95" edge="1">
          <mxGeometry relative="1" as="geometry" />
        </mxCell>
        <mxCell id="XVunq-hZrcPURqs-6oLk-94" value="товар = items[j]" style="rounded=0;whiteSpace=wrap;html=1;absoluteArcSize=1;arcSize=14;strokeWidth=2;fontFamily=Times New Roman;" parent="1" vertex="1">
          <mxGeometry x="1240" y="520.92" width="118.11" height="78.74" as="geometry" />
        </mxCell>
        <mxCell id="XVunq-hZrcPURqs-6oLk-177" style="edgeStyle=orthogonalEdgeStyle;rounded=0;orthogonalLoop=1;jettySize=auto;html=1;exitX=0;exitY=0.5;exitDx=0;exitDy=0;exitPerimeter=0;entryX=0.5;entryY=1;entryDx=0;entryDy=0;entryPerimeter=0;strokeWidth=2;endArrow=none;endFill=0;fontFamily=Times New Roman;" parent="1" source="XVunq-hZrcPURqs-6oLk-95" target="XVunq-hZrcPURqs-6oLk-92" edge="1">
          <mxGeometry relative="1" as="geometry">
            <Array as="points">
              <mxPoint x="1160" y="657.66" />
              <mxPoint x="1160" y="719.66" />
              <mxPoint x="1299" y="719.66" />
            </Array>
          </mxGeometry>
        </mxCell>
        <mxCell id="XVunq-hZrcPURqs-6oLk-178" style="edgeStyle=orthogonalEdgeStyle;rounded=0;orthogonalLoop=1;jettySize=auto;html=1;exitX=1;exitY=0.5;exitDx=0;exitDy=0;exitPerimeter=0;entryX=0.068;entryY=0.531;entryDx=0;entryDy=0;entryPerimeter=0;strokeWidth=2;fontFamily=Times New Roman;" parent="1" source="XVunq-hZrcPURqs-6oLk-95" target="XVunq-hZrcPURqs-6oLk-122" edge="1">
          <mxGeometry relative="1" as="geometry" />
        </mxCell>
        <mxCell id="XVunq-hZrcPURqs-6oLk-95" value="товар.ид === товарЗак.ид" style="strokeWidth=2;html=1;shape=mxgraph.flowchart.decision;whiteSpace=wrap;fontFamily=Times New Roman;" parent="1" vertex="1">
          <mxGeometry x="1240" y="618.4" width="118.11" height="78.74" as="geometry" />
        </mxCell>
        <mxCell id="XVunq-hZrcPURqs-6oLk-97" style="edgeStyle=orthogonalEdgeStyle;rounded=0;orthogonalLoop=1;jettySize=auto;html=1;exitX=0;exitY=0.5;exitDx=0;exitDy=0;exitPerimeter=0;entryX=0.5;entryY=0;entryDx=0;entryDy=0;entryPerimeter=0;strokeWidth=2;endArrow=none;endFill=0;dashed=1;fontFamily=Times New Roman;" parent="1" source="XVunq-hZrcPURqs-6oLk-96" target="XVunq-hZrcPURqs-6oLk-95" edge="1">
          <mxGeometry relative="1" as="geometry">
            <Array as="points">
              <mxPoint x="1370" y="587.66" />
              <mxPoint x="1370" y="609.66" />
              <mxPoint x="1299" y="609.66" />
            </Array>
          </mxGeometry>
        </mxCell>
        <mxCell id="XVunq-hZrcPURqs-6oLk-96" value="Ид товара,&lt;br&gt;который пришел в теле HTTP запроса,&lt;br&gt;равен ид товара из выборки БД?" style="strokeWidth=2;html=1;shape=mxgraph.flowchart.annotation_2;align=left;labelPosition=right;pointerEvents=1;fontFamily=Times New Roman;" parent="1" vertex="1">
          <mxGeometry x="1380" y="557.66" width="10" height="60" as="geometry" />
        </mxCell>
        <mxCell id="XVunq-hZrcPURqs-6oLk-109" value="Конец транзакции" style="strokeWidth=2;html=1;shape=mxgraph.flowchart.terminator;whiteSpace=wrap;fontFamily=Times New Roman;" parent="1" vertex="1">
          <mxGeometry x="660.63" y="1077.3700000000001" width="118.11" height="39.37" as="geometry" />
        </mxCell>
        <mxCell id="XVunq-hZrcPURqs-6oLk-147" style="edgeStyle=orthogonalEdgeStyle;rounded=0;orthogonalLoop=1;jettySize=auto;html=1;exitX=0.5;exitY=1;exitDx=0;exitDy=0;exitPerimeter=0;entryX=0.5;entryY=0;entryDx=0;entryDy=0;strokeWidth=2;endArrow=none;endFill=0;fontFamily=Times New Roman;" parent="1" source="XVunq-hZrcPURqs-6oLk-112" target="XVunq-hZrcPURqs-6oLk-113" edge="1">
          <mxGeometry relative="1" as="geometry" />
        </mxCell>
        <mxCell id="XVunq-hZrcPURqs-6oLk-112" value="А" style="strokeWidth=2;html=1;shape=mxgraph.flowchart.start_2;whiteSpace=wrap;fontFamily=Times New Roman;" parent="1" vertex="1">
          <mxGeometry x="429.37" y="42.17999999999995" width="39.37" height="39.37" as="geometry" />
        </mxCell>
        <mxCell id="XVunq-hZrcPURqs-6oLk-148" style="edgeStyle=orthogonalEdgeStyle;rounded=0;orthogonalLoop=1;jettySize=auto;html=1;exitX=0.5;exitY=1;exitDx=0;exitDy=0;entryX=0.5;entryY=0;entryDx=0;entryDy=0;strokeWidth=2;endArrow=none;endFill=0;fontFamily=Times New Roman;" parent="1" source="XVunq-hZrcPURqs-6oLk-113" target="XVunq-hZrcPURqs-6oLk-116" edge="1">
          <mxGeometry relative="1" as="geometry" />
        </mxCell>
        <mxCell id="XVunq-hZrcPURqs-6oLk-113" value="Расчеты" style="rounded=0;whiteSpace=wrap;html=1;absoluteArcSize=1;arcSize=14;strokeWidth=2;fontFamily=Times New Roman;" parent="1" vertex="1">
          <mxGeometry x="390.0000000000001" y="97.57999999999981" width="118.11" height="78.74" as="geometry" />
        </mxCell>
        <mxCell id="XVunq-hZrcPURqs-6oLk-115" style="edgeStyle=orthogonalEdgeStyle;rounded=0;orthogonalLoop=1;jettySize=auto;html=1;exitX=0;exitY=0.5;exitDx=0;exitDy=0;exitPerimeter=0;strokeWidth=2;endArrow=none;endFill=0;dashed=1;fontFamily=Times New Roman;" parent="1" source="XVunq-hZrcPURqs-6oLk-114" target="XVunq-hZrcPURqs-6oLk-113" edge="1">
          <mxGeometry relative="1" as="geometry" />
        </mxCell>
        <mxCell id="XVunq-hZrcPURqs-6oLk-114" value="номерПоПорядку += 1&lt;br&gt;сумма = количество * цена&lt;br&gt;суммаНДС = сумма * 0.2&lt;br&gt;всегоНДС = сумма + сумма НДС" style="strokeWidth=2;html=1;shape=mxgraph.flowchart.annotation_2;align=left;labelPosition=right;pointerEvents=1;fontFamily=Times New Roman;" parent="1" vertex="1">
          <mxGeometry x="539.37" y="98.63" width="10" height="76.63" as="geometry" />
        </mxCell>
        <mxCell id="XVunq-hZrcPURqs-6oLk-149" style="edgeStyle=orthogonalEdgeStyle;rounded=0;orthogonalLoop=1;jettySize=auto;html=1;exitX=0.5;exitY=1;exitDx=0;exitDy=0;entryX=0.5;entryY=0;entryDx=0;entryDy=0;strokeWidth=2;endArrow=none;endFill=0;fontFamily=Times New Roman;" parent="1" source="XVunq-hZrcPURqs-6oLk-116" target="XVunq-hZrcPURqs-6oLk-117" edge="1">
          <mxGeometry relative="1" as="geometry" />
        </mxCell>
        <mxCell id="XVunq-hZrcPURqs-6oLk-116" value="Добавление данных в массив&lt;br&gt;(для сохранения списка номеклатуры в БД)" style="rounded=0;whiteSpace=wrap;html=1;absoluteArcSize=1;arcSize=14;strokeWidth=2;fontFamily=Times New Roman;" parent="1" vertex="1">
          <mxGeometry x="390.37" y="200.17999999999995" width="118.11" height="78.74" as="geometry" />
        </mxCell>
        <mxCell id="XVunq-hZrcPURqs-6oLk-150" style="edgeStyle=orthogonalEdgeStyle;rounded=0;orthogonalLoop=1;jettySize=auto;html=1;exitX=0.5;exitY=1;exitDx=0;exitDy=0;entryX=0.5;entryY=0;entryDx=0;entryDy=0;entryPerimeter=0;strokeWidth=2;endArrow=none;endFill=0;fontFamily=Times New Roman;" parent="1" source="XVunq-hZrcPURqs-6oLk-117" target="XVunq-hZrcPURqs-6oLk-129" edge="1">
          <mxGeometry relative="1" as="geometry" />
        </mxCell>
        <mxCell id="XVunq-hZrcPURqs-6oLk-117" value="Добавление данных в массив&lt;br&gt;(для отображения&lt;br&gt;на e-mail)" style="rounded=0;whiteSpace=wrap;html=1;absoluteArcSize=1;arcSize=14;strokeWidth=2;fontFamily=Times New Roman;" parent="1" vertex="1">
          <mxGeometry x="390.37" y="300.17999999999995" width="118.11" height="78.74" as="geometry" />
        </mxCell>
        <mxCell id="XVunq-hZrcPURqs-6oLk-120" style="edgeStyle=orthogonalEdgeStyle;rounded=0;orthogonalLoop=1;jettySize=auto;html=1;exitX=0;exitY=0.5;exitDx=0;exitDy=0;exitPerimeter=0;entryX=1;entryY=0.5;entryDx=0;entryDy=0;strokeWidth=2;endArrow=none;endFill=0;dashed=1;fontFamily=Times New Roman;" parent="1" source="XVunq-hZrcPURqs-6oLk-118" target="XVunq-hZrcPURqs-6oLk-116" edge="1">
          <mxGeometry relative="1" as="geometry" />
        </mxCell>
        <mxCell id="XVunq-hZrcPURqs-6oLk-118" value="Добавление в массив объекта с полями:&lt;br&gt;dp_itemId - ид номенклатуры&lt;br&gt;dp_orderId - ид заказа&lt;br&gt;dp_cost - цена&lt;br&gt;dp_count - количество" style="strokeWidth=2;html=1;shape=mxgraph.flowchart.annotation_2;align=left;labelPosition=right;pointerEvents=1;fontFamily=Times New Roman;" parent="1" vertex="1">
          <mxGeometry x="539.37" y="194.54999999999984" width="10" height="90" as="geometry" />
        </mxCell>
        <mxCell id="XVunq-hZrcPURqs-6oLk-121" style="edgeStyle=orthogonalEdgeStyle;rounded=0;orthogonalLoop=1;jettySize=auto;html=1;exitX=0;exitY=0.5;exitDx=0;exitDy=0;exitPerimeter=0;entryX=1;entryY=0.5;entryDx=0;entryDy=0;strokeWidth=2;endArrow=none;endFill=0;dashed=1;fontFamily=Times New Roman;" parent="1" source="XVunq-hZrcPURqs-6oLk-119" target="XVunq-hZrcPURqs-6oLk-117" edge="1">
          <mxGeometry relative="1" as="geometry" />
        </mxCell>
        <mxCell id="XVunq-hZrcPURqs-6oLk-119" value="Добавление в массив объекта с полями:&lt;br&gt;index - номер по порядку&lt;br&gt;dp_name - наименование&lt;br&gt;dp_model - модель&lt;br&gt;dp_photoUrl - ссылка на картинку&lt;br&gt;dp_cost - цена&lt;br&gt;dp_count - количество&lt;br&gt;dp_sum - сумма&lt;br&gt;dp_edIzm - удиница измерения&lt;br&gt;dp_stavkaNds - ставка НДС&lt;br&gt;dp_sumNds - сумма НДС&lt;br&gt;dp_totalSumNds - всего с НДС" style="strokeWidth=2;html=1;shape=mxgraph.flowchart.annotation_2;align=left;labelPosition=right;pointerEvents=1;fontFamily=Times New Roman;" parent="1" vertex="1">
          <mxGeometry x="539.37" y="300.17999999999995" width="10" height="190" as="geometry" />
        </mxCell>
        <mxCell id="XVunq-hZrcPURqs-6oLk-122" value="А" style="strokeWidth=2;html=1;shape=mxgraph.flowchart.start_2;whiteSpace=wrap;fontFamily=Times New Roman;" parent="1" vertex="1">
          <mxGeometry x="1399.11" y="637.0899999999999" width="39.37" height="39.37" as="geometry" />
        </mxCell>
        <mxCell id="XVunq-hZrcPURqs-6oLk-124" value="Да" style="text;html=1;align=center;verticalAlign=middle;resizable=0;points=[];autosize=1;strokeColor=none;fillColor=none;fontFamily=Times New Roman;" parent="1" vertex="1">
          <mxGeometry x="1358.1100000000001" y="629.66" width="40" height="30" as="geometry" />
        </mxCell>
        <mxCell id="XVunq-hZrcPURqs-6oLk-180" style="edgeStyle=orthogonalEdgeStyle;rounded=0;orthogonalLoop=1;jettySize=auto;html=1;exitX=1;exitY=0.5;exitDx=0;exitDy=0;exitPerimeter=0;strokeWidth=2;endArrow=none;endFill=0;fontFamily=Times New Roman;" parent="1" source="XVunq-hZrcPURqs-6oLk-125" target="XVunq-hZrcPURqs-6oLk-92" edge="1">
          <mxGeometry relative="1" as="geometry">
            <Array as="points">
              <mxPoint x="1499" y="658.66" />
              <mxPoint x="1520" y="658.66" />
              <mxPoint x="1520" y="719.66" />
              <mxPoint x="1299" y="719.66" />
            </Array>
          </mxGeometry>
        </mxCell>
        <mxCell id="XVunq-hZrcPURqs-6oLk-125" value="Б" style="strokeWidth=2;html=1;shape=mxgraph.flowchart.start_2;whiteSpace=wrap;fontFamily=Times New Roman;" parent="1" vertex="1">
          <mxGeometry x="1460" y="637.0899999999998" width="39.37" height="39.37" as="geometry" />
        </mxCell>
        <mxCell id="XVunq-hZrcPURqs-6oLk-128" value="Нет" style="text;html=1;align=center;verticalAlign=middle;resizable=0;points=[];autosize=1;strokeColor=none;fillColor=none;fontFamily=Times New Roman;" parent="1" vertex="1">
          <mxGeometry x="1200" y="629.66" width="40" height="30" as="geometry" />
        </mxCell>
        <mxCell id="XVunq-hZrcPURqs-6oLk-129" value="Б" style="strokeWidth=2;html=1;shape=mxgraph.flowchart.start_2;whiteSpace=wrap;fontFamily=Times New Roman;" parent="1" vertex="1">
          <mxGeometry x="429.37" y="399.54999999999984" width="39.37" height="39.37" as="geometry" />
        </mxCell>
        <mxCell id="XVunq-hZrcPURqs-6oLk-154" style="edgeStyle=orthogonalEdgeStyle;rounded=0;orthogonalLoop=1;jettySize=auto;html=1;exitX=0.5;exitY=1;exitDx=0;exitDy=0;entryX=0.5;entryY=0;entryDx=0;entryDy=0;strokeWidth=2;endArrow=none;endFill=0;fontFamily=Times New Roman;" parent="1" source="XVunq-hZrcPURqs-6oLk-131" target="XVunq-hZrcPURqs-6oLk-132" edge="1">
          <mxGeometry relative="1" as="geometry" />
        </mxCell>
        <mxCell id="XVunq-hZrcPURqs-6oLk-131" value="Выполняем&lt;br&gt;SQL bulk INSERT&lt;br&gt;из переменной&lt;br&gt;массивБД" style="rounded=0;whiteSpace=wrap;html=1;absoluteArcSize=1;arcSize=14;strokeWidth=2;fontFamily=Times New Roman;" parent="1" vertex="1">
          <mxGeometry x="660.63" y="760" width="118.11" height="78.74" as="geometry" />
        </mxCell>
        <mxCell id="XVunq-hZrcPURqs-6oLk-155" style="edgeStyle=orthogonalEdgeStyle;rounded=0;orthogonalLoop=1;jettySize=auto;html=1;exitX=0.5;exitY=1;exitDx=0;exitDy=0;entryX=0.5;entryY=0;entryDx=0;entryDy=0;entryPerimeter=0;strokeWidth=2;endArrow=none;endFill=0;fontFamily=Times New Roman;" parent="1" source="XVunq-hZrcPURqs-6oLk-132" target="XVunq-hZrcPURqs-6oLk-135" edge="1">
          <mxGeometry relative="1" as="geometry" />
        </mxCell>
        <mxCell id="XVunq-hZrcPURqs-6oLk-132" value="Отправка сообщения по шаблону&lt;br&gt;с переменной массивEmail" style="rounded=0;whiteSpace=wrap;html=1;absoluteArcSize=1;arcSize=14;strokeWidth=2;fontFamily=Times New Roman;" parent="1" vertex="1">
          <mxGeometry x="660.63" y="855.94" width="118.11" height="78.74" as="geometry" />
        </mxCell>
        <mxCell id="XVunq-hZrcPURqs-6oLk-160" style="edgeStyle=orthogonalEdgeStyle;rounded=0;orthogonalLoop=1;jettySize=auto;html=1;exitX=1;exitY=0.5;exitDx=0;exitDy=0;exitPerimeter=0;entryX=0;entryY=0.5;entryDx=0;entryDy=0;strokeWidth=2;endArrow=none;endFill=0;fontFamily=Times New Roman;" parent="1" source="XVunq-hZrcPURqs-6oLk-135" target="XVunq-hZrcPURqs-6oLk-139" edge="1">
          <mxGeometry relative="1" as="geometry" />
        </mxCell>
        <mxCell id="XVunq-hZrcPURqs-6oLk-173" style="edgeStyle=orthogonalEdgeStyle;rounded=0;orthogonalLoop=1;jettySize=auto;html=1;exitX=0;exitY=0.5;exitDx=0;exitDy=0;exitPerimeter=0;entryX=0.5;entryY=0;entryDx=0;entryDy=0;entryPerimeter=0;strokeWidth=2;endArrow=none;endFill=0;fontFamily=Times New Roman;" parent="1" source="XVunq-hZrcPURqs-6oLk-135" target="XVunq-hZrcPURqs-6oLk-109" edge="1">
          <mxGeometry relative="1" as="geometry">
            <Array as="points">
              <mxPoint x="520" y="994" />
              <mxPoint x="520" y="1060" />
              <mxPoint x="720" y="1060" />
              <mxPoint x="720" y="1077" />
            </Array>
          </mxGeometry>
        </mxCell>
        <mxCell id="XVunq-hZrcPURqs-6oLk-135" value="Сообщение отправлено на&lt;br&gt;e-mail?" style="strokeWidth=2;html=1;shape=mxgraph.flowchart.decision;whiteSpace=wrap;fontFamily=Times New Roman;" parent="1" vertex="1">
          <mxGeometry x="660.63" y="954.3600000000001" width="118.11" height="78.74" as="geometry" />
        </mxCell>
        <mxCell id="XVunq-hZrcPURqs-6oLk-137" style="edgeStyle=orthogonalEdgeStyle;rounded=0;orthogonalLoop=1;jettySize=auto;html=1;exitX=0;exitY=0.5;exitDx=0;exitDy=0;exitPerimeter=0;entryX=1;entryY=0.5;entryDx=0;entryDy=0;entryPerimeter=0;strokeWidth=2;dashed=1;endArrow=none;endFill=0;fontFamily=Times New Roman;" parent="1" source="XVunq-hZrcPURqs-6oLk-136" target="XVunq-hZrcPURqs-6oLk-78" edge="1">
          <mxGeometry relative="1" as="geometry">
            <Array as="points">
              <mxPoint x="1370" y="86" />
              <mxPoint x="1370" y="60" />
            </Array>
          </mxGeometry>
        </mxCell>
        <mxCell id="XVunq-hZrcPURqs-6oLk-136" value="Транзакция:&lt;br&gt;1) сохранение данных в БД;&lt;br&gt;2) отправка сообщения.&lt;br&gt;&lt;br&gt;При невыполнении одного&lt;br&gt;из пункта - откат транзакции." style="strokeWidth=2;html=1;shape=mxgraph.flowchart.annotation_2;align=left;labelPosition=right;pointerEvents=1;fontFamily=Times New Roman;" parent="1" vertex="1">
          <mxGeometry x="1380" y="42.18" width="10" height="87.82" as="geometry" />
        </mxCell>
        <mxCell id="XVunq-hZrcPURqs-6oLk-161" style="edgeStyle=orthogonalEdgeStyle;rounded=0;orthogonalLoop=1;jettySize=auto;html=1;exitX=0.5;exitY=1;exitDx=0;exitDy=0;entryX=0.5;entryY=0;entryDx=0;entryDy=0;entryPerimeter=0;strokeWidth=2;endArrow=none;endFill=0;fontFamily=Times New Roman;" parent="1" source="XVunq-hZrcPURqs-6oLk-139" target="XVunq-hZrcPURqs-6oLk-109" edge="1">
          <mxGeometry relative="1" as="geometry">
            <Array as="points">
              <mxPoint x="919" y="1060" />
              <mxPoint x="720" y="1060" />
            </Array>
          </mxGeometry>
        </mxCell>
        <mxCell id="XVunq-hZrcPURqs-6oLk-139" value="Вызов исключения о невыполненой транзакции" style="rounded=0;whiteSpace=wrap;html=1;absoluteArcSize=1;arcSize=14;strokeWidth=2;fontFamily=Times New Roman;" parent="1" vertex="1">
          <mxGeometry x="859.9999999999999" y="954.3600000000001" width="118.11" height="78.74" as="geometry" />
        </mxCell>
        <mxCell id="XVunq-hZrcPURqs-6oLk-142" style="edgeStyle=orthogonalEdgeStyle;rounded=0;orthogonalLoop=1;jettySize=auto;html=1;exitX=0.5;exitY=1;exitDx=0;exitDy=0;entryX=0.5;entryY=0;entryDx=0;entryDy=0;entryPerimeter=0;strokeWidth=2;endArrow=none;endFill=0;fontFamily=Times New Roman;" parent="1" source="XVunq-hZrcPURqs-6oLk-140" target="XVunq-hZrcPURqs-6oLk-58" edge="1">
          <mxGeometry relative="1" as="geometry">
            <Array as="points">
              <mxPoint x="1059" y="778" />
              <mxPoint x="919" y="778" />
            </Array>
          </mxGeometry>
        </mxCell>
        <mxCell id="XVunq-hZrcPURqs-6oLk-140" value="Исключение с&lt;br&gt;HTTP статусом 409" style="rounded=0;whiteSpace=wrap;html=1;absoluteArcSize=1;arcSize=14;strokeWidth=2;fontFamily=Times New Roman;" parent="1" vertex="1">
          <mxGeometry x="1000" y="667.69" width="118.11" height="78.74" as="geometry" />
        </mxCell>
        <mxCell id="XVunq-hZrcPURqs-6oLk-146" value="" style="endArrow=classic;html=1;rounded=0;strokeWidth=2;fontFamily=Times New Roman;" parent="1" edge="1">
          <mxGeometry width="50" height="50" relative="1" as="geometry">
            <mxPoint x="1060" y="778" as="sourcePoint" />
            <mxPoint x="1020.0000000000001" y="778" as="targetPoint" />
          </mxGeometry>
        </mxCell>
        <mxCell id="XVunq-hZrcPURqs-6oLk-162" value="" style="endArrow=classic;html=1;rounded=0;strokeWidth=2;fontFamily=Times New Roman;" parent="1" edge="1">
          <mxGeometry width="50" height="50" relative="1" as="geometry">
            <mxPoint x="919.9999999999999" y="1059.68" as="sourcePoint" />
            <mxPoint x="879.9999999999999" y="1059.68" as="targetPoint" />
          </mxGeometry>
        </mxCell>
        <mxCell id="XVunq-hZrcPURqs-6oLk-163" value="Да" style="text;html=1;align=center;verticalAlign=middle;resizable=0;points=[];autosize=1;strokeColor=none;fillColor=none;fontFamily=Times New Roman;" parent="1" vertex="1">
          <mxGeometry x="620.6299999999999" y="964.6800000000002" width="40" height="30" as="geometry" />
        </mxCell>
        <mxCell id="XVunq-hZrcPURqs-6oLk-164" value="Нет" style="text;html=1;align=center;verticalAlign=middle;resizable=0;points=[];autosize=1;strokeColor=none;fillColor=none;fontFamily=Times New Roman;" parent="1" vertex="1">
          <mxGeometry x="777.6300000000001" y="964.6800000000001" width="40" height="30" as="geometry" />
        </mxCell>
        <mxCell id="XVunq-hZrcPURqs-6oLk-166" style="edgeStyle=orthogonalEdgeStyle;rounded=0;orthogonalLoop=1;jettySize=auto;html=1;exitX=0;exitY=0.5;exitDx=0;exitDy=0;exitPerimeter=0;strokeWidth=2;dashed=1;endArrow=none;endFill=0;fontFamily=Times New Roman;" parent="1" source="XVunq-hZrcPURqs-6oLk-165" target="XVunq-hZrcPURqs-6oLk-49" edge="1">
          <mxGeometry relative="1" as="geometry">
            <Array as="points">
              <mxPoint x="990" y="121" />
              <mxPoint x="990" y="60" />
            </Array>
          </mxGeometry>
        </mxCell>
        <mxCell id="XVunq-hZrcPURqs-6oLk-165" value="Функция, которая&lt;br&gt;которая по данным&lt;br&gt;из HTTP запроса&lt;br&gt;записывает заказ с&lt;br&gt;номенклатурой&lt;br&gt;в БД и отправляет&lt;br&gt;на e-mail письмо&lt;br&gt;с таблицей&lt;br&gt;номенклатуры&lt;br&gt;менеджеру и клиенту.&lt;br&gt;Функция выполняется&lt;br&gt;на сервере." style="strokeWidth=2;html=1;shape=mxgraph.flowchart.annotation_2;align=left;labelPosition=right;pointerEvents=1;fontFamily=Times New Roman;" parent="1" vertex="1">
          <mxGeometry x="1003" y="31.35" width="15" height="178.65" as="geometry" />
        </mxCell>
        <mxCell id="XVunq-hZrcPURqs-6oLk-168" value="" style="rounded=0;whiteSpace=wrap;html=1;strokeColor=none;fillColor=none;fontFamily=Times New Roman;" parent="1" vertex="1">
          <mxGeometry width="40" height="40" as="geometry" />
        </mxCell>
        <mxCell id="XVunq-hZrcPURqs-6oLk-172" style="edgeStyle=orthogonalEdgeStyle;rounded=0;orthogonalLoop=1;jettySize=auto;html=1;exitX=0.5;exitY=1;exitDx=0;exitDy=0;exitPerimeter=0;entryX=0.5;entryY=0;entryDx=0;entryDy=0;strokeWidth=2;endArrow=none;endFill=0;fontFamily=Times New Roman;" parent="1" source="XVunq-hZrcPURqs-6oLk-171" target="XVunq-hZrcPURqs-6oLk-131" edge="1">
          <mxGeometry relative="1" as="geometry" />
        </mxCell>
        <mxCell id="XVunq-hZrcPURqs-6oLk-171" value="В" style="strokeWidth=2;html=1;shape=mxgraph.flowchart.start_2;whiteSpace=wrap;fontFamily=Times New Roman;" parent="1" vertex="1">
          <mxGeometry x="700" y="701.24" width="39.37" height="39.37" as="geometry" />
        </mxCell>
        <mxCell id="XVunq-hZrcPURqs-6oLk-181" value="" style="endArrow=classic;html=1;rounded=0;strokeWidth=2;fontFamily=Times New Roman;" parent="1" edge="1">
          <mxGeometry width="50" height="50" relative="1" as="geometry">
            <mxPoint x="1520" y="719.66" as="sourcePoint" />
            <mxPoint x="1480" y="719.66" as="targetPoint" />
          </mxGeometry>
        </mxCell>
        <mxCell id="XVunq-hZrcPURqs-6oLk-182" value="" style="endArrow=classic;html=1;rounded=0;strokeWidth=2;fontFamily=Times New Roman;" parent="1" edge="1">
          <mxGeometry width="50" height="50" relative="1" as="geometry">
            <mxPoint x="1340" y="719.66" as="sourcePoint" />
            <mxPoint x="1300" y="719.66" as="targetPoint" />
          </mxGeometry>
        </mxCell>
        <mxCell id="XVunq-hZrcPURqs-6oLk-184" style="edgeStyle=orthogonalEdgeStyle;rounded=0;orthogonalLoop=1;jettySize=auto;html=1;exitX=0;exitY=0.5;exitDx=0;exitDy=0;exitPerimeter=0;entryX=1;entryY=0.5;entryDx=0;entryDy=0;strokeWidth=2;dashed=1;endArrow=none;endFill=0;fontFamily=Times New Roman;" parent="1" source="XVunq-hZrcPURqs-6oLk-183" target="XVunq-hZrcPURqs-6oLk-132" edge="1">
          <mxGeometry relative="1" as="geometry" />
        </mxCell>
        <mxCell id="XVunq-hZrcPURqs-6oLk-183" value="Проходимся по массиву и создаем таблицу&lt;br&gt;заказаной номенклатуры&lt;br&gt;в HTML-шаблоне, для отправки сообщения" style="strokeWidth=2;html=1;shape=mxgraph.flowchart.annotation_2;align=left;labelPosition=right;pointerEvents=1;fontFamily=Times New Roman;" parent="1" vertex="1">
          <mxGeometry x="860" y="869.37" width="8" height="50" as="geometry" />
        </mxCell>
        <mxCell id="XVunq-hZrcPURqs-6oLk-185" value="В" style="strokeWidth=2;html=1;shape=mxgraph.flowchart.start_2;whiteSpace=wrap;fontFamily=Times New Roman;" parent="1" vertex="1">
          <mxGeometry x="1279.37" y="959.99" width="39.37" height="39.37" as="geometry" />
        </mxCell>
      </root>
    </mxGraphModel>
  </diagram>
</mxfile>
